<?xml version="1.0" encoding="UTF-8" standalone="no"?>
<svg width="44px" height="49px" viewBox="0 0 44 49" version="1.1" xmlns="http://www.w3.org/2000/svg" xmlns:xlink="http://www.w3.org/1999/xlink">
    <!-- Generator: Sketch 3.7.1 (28215) - http://www.bohemiancoding.com/sketch -->
    <title>Calendar Icon</title>
    <desc>Created with Sketch.</desc>
    <defs></defs>
    <g id="Page-1" stroke="none" stroke-width="1" fill="none" fill-rule="evenodd">
        <g id="Mast-Head-with-Search-Closed-Copy-4" transform="translate(-250.000000, -3318.000000)">
            <g id="Group-14" transform="translate(226.000000, 3294.000000)">
                <g id="Calendar-Icon" transform="translate(24.000000, 24.000000)">
                    <path d="M35.5944427,48.7077531 L8.80898595,48.7077531 C4.22226054,48.7077531 0.491376756,44.9500357 0.491376756,40.3308674 L0.491376756,13.3729729 C0.491376756,8.75435089 4.22226054,4.99663344 8.80898595,4.99663344 L11.573387,4.99663344 L11.573387,2.37677404 C11.573387,1.30501337 12.4389911,0.432637333 13.5030983,0.432637333 C14.5672056,0.432637333 15.4328097,1.30501337 15.4328097,2.37677404 L15.4328097,4.99663344 L29.0411256,4.99663344 L29.0411256,2.37677404 C29.0411256,1.30501337 29.9067297,0.432637333 30.970837,0.432637333 C32.0349442,0.432637333 32.9005483,1.30501337 32.9005483,2.37677404 L32.9005483,4.99663344 L35.5944427,4.99663344 C40.1806258,4.99663344 43.9120519,8.75435089 43.9120519,13.3729729 L43.9120519,40.3308674 C43.9120519,44.9500357 40.1806258,48.7077531 35.5944427,48.7077531 L35.5944427,48.7077531 Z M8.80898595,7.18167048 C5.41870328,7.18167048 2.6602682,9.95885256 2.6602682,13.3729729 L2.6602682,40.3308674 C2.6602682,43.7449877 5.41870328,46.5227161 8.80898595,46.5227161 L35.5944427,46.5227161 C38.9847254,46.5227161 41.7426181,43.7449877 41.7426181,40.3308674 L41.7426181,13.3729729 C41.7426181,9.95885256 38.9847254,7.18167048 35.5944427,7.18167048 L8.80898595,7.18167048 L8.80898595,7.18167048 Z" id="Fill-2" fill="#1A527E"></path>
                    <path d="M31.0641226,7.73940119 C32.1152133,7.73940119 32.9645466,8.5959357 32.9645466,9.65076233 C32.9645466,10.7066815 32.1152133,11.5621235 31.0641226,11.5621235 C30.0135743,11.5621235 29.1685798,10.7066815 29.1685798,9.65076233 C29.1685798,8.5959357 30.0135743,7.73940119 31.0641226,7.73940119" id="Fill-3" fill="#1A527E"></path>
                    <path d="M13.5931298,7.73940119 C14.6425934,7.73940119 15.4919268,8.5959357 15.4919268,9.65076233 C15.4919268,10.7066815 14.6425934,11.5621235 13.5931298,11.5621235 C12.5409544,11.5621235 11.6970447,10.7066815 11.6970447,9.65076233 C11.6970447,8.5959357 12.5409544,7.73940119 13.5931298,7.73940119" id="Fill-4" fill="#1A527E"></path>
                    <polygon id="Fill-5" fill="#1A527E" points="6.01529757 16.8952526 9.99186973 16.8952526 9.99186973 20.9004255 6.01529757 20.9004255"></polygon>
                    <polygon id="Fill-6" fill="#1A527E" points="10.7479174 16.8952526 14.7244896 16.8952526 14.7244896 20.9004255 10.7479174 20.9004255"></polygon>
                    <polygon id="Fill-7" fill="#1A527E" points="15.4805372 16.8952526 19.4571094 16.8952526 19.4571094 20.9004255 15.4805372 20.9004255"></polygon>
                    <polygon id="Fill-8" fill="#1A527E" points="20.2136994 16.8952526 24.1902716 16.8952526 24.1902716 20.9004255 20.2136994 20.9004255"></polygon>
                    <polygon id="Fill-9" fill="#1A527E" points="24.9463193 16.8952526 28.9228914 16.8952526 28.9228914 20.9004255 24.9463193 20.9004255"></polygon>
                    <polygon id="Fill-10" fill="#1A527E" points="29.6789391 16.8952526 33.6555113 16.8952526 33.6555113 20.9004255 29.6789391 20.9004255"></polygon>
                    <polygon id="Fill-11" fill="#1A527E" points="34.411559 16.8952526 38.3881311 16.8952526 38.3881311 20.9004255 34.411559 20.9004255"></polygon>
                    <polygon id="Fill-12" fill="#1A527E" points="6.01529757 21.8886085 9.99186973 21.8886085 9.99186973 25.8937814 6.01529757 25.8937814"></polygon>
                    <polygon id="Fill-13" fill="#1A527E" points="10.7479174 21.8886085 14.7244896 21.8886085 14.7244896 25.8937814 10.7479174 25.8937814"></polygon>
                    <polygon id="Fill-14" fill="#1A527E" points="15.4805372 21.8886085 19.4571094 21.8886085 19.4571094 25.8937814 15.4805372 25.8937814"></polygon>
                    <polygon id="Fill-15" fill="#1A527E" points="20.2136994 21.8886085 24.1902716 21.8886085 24.1902716 25.8937814 20.2136994 25.8937814"></polygon>
                    <polygon id="Fill-16" fill="#1A527E" points="24.9463193 21.8886085 28.9228914 21.8886085 28.9228914 25.8937814 24.9463193 25.8937814"></polygon>
                    <polygon id="Fill-17" fill="#1A527E" points="29.6789391 21.8886085 33.6555113 21.8886085 33.6555113 25.8937814 29.6789391 25.8937814"></polygon>
                    <polygon id="Fill-18" fill="#1A527E" points="34.411559 21.8886085 38.3881311 21.8886085 38.3881311 25.8937814 34.411559 25.8937814"></polygon>
                    <polygon id="Fill-19" fill="#1A527E" points="6.01529757 26.8819644 9.99186973 26.8819644 9.99186973 30.8871373 6.01529757 30.8871373"></polygon>
                    <polygon id="Fill-20" fill="#1A527E" points="10.7479174 26.8819644 14.7244896 26.8819644 14.7244896 30.8871373 10.7479174 30.8871373"></polygon>
                    <polygon id="Fill-21" fill="#1A527E" points="15.4805372 26.8819644 19.4571094 26.8819644 19.4571094 30.8871373 15.4805372 30.8871373"></polygon>
                    <polygon id="Fill-22" fill="#1A527E" points="20.2136994 26.8819644 24.1902716 26.8819644 24.1902716 30.8871373 20.2136994 30.8871373"></polygon>
                    <polygon id="Fill-23" fill="#1A527E" points="24.9463193 26.8819644 28.9228914 26.8819644 28.9228914 30.8871373 24.9463193 30.8871373"></polygon>
                    <polygon id="Fill-24" fill="#1A527E" points="29.6789391 26.8819644 33.6555113 26.8819644 33.6555113 30.8871373 29.6789391 30.8871373"></polygon>
                    <polygon id="Fill-25" fill="#1A527E" points="34.411559 26.8819644 38.3881311 26.8819644 38.3881311 30.8871373 34.411559 30.8871373"></polygon>
                    <polygon id="Fill-26" fill="#1A527E" points="6.01529757 31.8753203 9.99186973 31.8753203 9.99186973 35.8804932 6.01529757 35.8804932"></polygon>
                    <polygon id="Fill-27" fill="#1A527E" points="10.7479174 31.8753203 14.7244896 31.8753203 14.7244896 35.8804932 10.7479174 35.8804932"></polygon>
                    <polygon id="Fill-28" fill="#1A527E" points="15.4805372 31.8753203 19.4571094 31.8753203 19.4571094 35.8804932 15.4805372 35.8804932"></polygon>
                    <polygon id="Fill-29" fill="#1A527E" points="20.2136994 31.8753203 24.1902716 31.8753203 24.1902716 35.8804932 20.2136994 35.8804932"></polygon>
                    <polygon id="Fill-30" fill="#1A527E" points="24.9463193 31.8753203 28.9228914 31.8753203 28.9228914 35.8804932 24.9463193 35.8804932"></polygon>
                    <polygon id="Fill-31" fill="#1A527E" points="29.6789391 31.8753203 33.6555113 31.8753203 33.6555113 35.8804932 29.6789391 35.8804932"></polygon>
                    <polygon id="Fill-32" fill="#1A527E" points="34.411559 31.8753203 38.3881311 31.8753203 38.3881311 35.8804932 34.411559 35.8804932"></polygon>
                    <polygon id="Fill-33" fill="#1A527E" points="6.01529757 37.0833561 9.99186973 37.0833561 9.99186973 41.088529 6.01529757 41.088529"></polygon>
                    <polygon id="Fill-34" fill="#1A527E" points="10.7479174 37.0833561 14.7244896 37.0833561 14.7244896 41.088529 10.7479174 41.088529"></polygon>
                    <polygon id="Fill-35" fill="#1A527E" points="15.4805372 37.0833561 19.4571094 37.0833561 19.4571094 41.088529 15.4805372 41.088529"></polygon>
                    <polygon id="Fill-36" fill="#E7E8E9" points="20.2136994 37.0833561 24.1902716 37.0833561 24.1902716 41.088529 20.2136994 41.088529"></polygon>
                    <polygon id="Fill-37" fill="#E7E8E9" points="24.9463193 37.0833561 28.9228914 37.0833561 28.9228914 41.088529 24.9463193 41.088529"></polygon>
                    <polygon id="Fill-38" fill="#E7E8E9" points="29.6789391 37.0833561 33.6555113 37.0833561 33.6555113 41.088529 29.6789391 41.088529"></polygon>
                    <polygon id="Fill-39" fill="#E7E8E9" points="34.411559 37.0833561 38.3881311 37.0833561 38.3881311 41.088529 34.411559 41.088529"></polygon>
                </g>
            </g>
        </g>
    </g>
</svg>