<?xml version="1.0" encoding="UTF-8" standalone="no"?>
<svg width="38px" height="49px" viewBox="0 0 38 49" version="1.1" xmlns="http://www.w3.org/2000/svg" xmlns:xlink="http://www.w3.org/1999/xlink">
    <!-- Generator: Sketch 3.7.1 (28215) - http://www.bohemiancoding.com/sketch -->
    <title>Icon/Delete</title>
    <desc>Created with Sketch.</desc>
    <defs></defs>
    <g id="Page-1" stroke="none" stroke-width="1" fill="none" fill-rule="evenodd">
        <g id="Mast-Head-with-Search-Closed-Copy-4" transform="translate(-250.000000, -3440.000000)">
            <g id="Group-13" transform="translate(226.000000, 3416.000000)">
                <g id="Icon/Delete" transform="translate(24.000000, 24.000000)">
                    <path d="M24.3768676,3.24469669 C24.3768676,1.66870115 23.1403598,0.370822478 21.6388861,0.370822478 L15.6771522,0.370822478 C14.1756784,0.370822478 12.9391707,1.66870115 12.9391707,3.24469669 L24.3768676,3.24469669 L22.3091829,18.2" id="Fill-1" fill="#1A527E"></path>
                    <path d="M29.0137718,48.8095087 L8.25810551,48.8095087 C5.29931904,48.8095087 2.91462547,46.306457 2.91462547,43.2008187 L2.91462547,8.62162262 L34.3572518,8.62162262 L34.3572518,43.2008187 C34.3572518,46.306457 31.9725582,48.8095087 29.0137718,48.8095087" id="Fill-2" fill="#1A527E"></path>
                    <path d="M4.85770912,10.1049125 L4.85770912,43.1081131 C4.85770912,45.333048 6.57998781,47.1408076 8.69971543,47.1408076 L28.5721618,47.2335132 C30.6918895,47.2335132 32.4141682,45.4257536 32.4141682,43.2008187 L32.4141682,10.1976182 L4.85770912,10.1049125" id="Fill-3" fill="#FFFFFF"></path>
                    <path d="M25.7016974,15.5281913 C25.7016974,14.6011351 26.4082732,13.9058429 27.2473321,13.9058429 C28.1305519,13.9058429 28.7929668,14.6474879 28.7929668,15.5281913 L28.7929668,41.7175288 C28.7929668,42.644585 28.0863909,43.3398772 27.2473321,43.3398772 C26.4082732,43.3398772 25.7016974,42.5982322 25.7016974,41.7175288 L25.7016974,15.5281913" id="Fill-4" fill="#1A527E"></path>
                    <path d="M17.0461429,15.5281913 C17.0461429,14.6011351 17.7527188,13.9058429 18.5917776,13.9058429 C19.4308365,13.9058429 20.1374124,14.6474879 20.1374124,15.5281913 L20.1374124,41.7175288 C20.1374124,42.644585 19.4308365,43.3398772 18.5917776,43.3398772 C17.7085578,43.3398772 17.0461429,42.5982322 17.0461429,41.7175288 L17.0461429,15.5281913" id="Fill-5" fill="#1A527E"></path>
                    <path d="M8.3464275,15.5281913 C8.3464275,14.6011351 9.05300337,13.9058429 9.89206222,13.9058429 C10.7752821,13.9058429 11.4376969,14.6474879 11.4376969,15.5281913 L11.4376969,41.7175288 C11.4376969,42.644585 10.7311211,43.3398772 9.89206222,43.3398772 C9.05300337,43.3398772 8.3464275,42.5982322 8.3464275,41.7175288 L8.3464275,15.5281913" id="Fill-6" fill="#1A527E"></path>
                    <path d="M30.6477285,3.38375511 L6.62414881,3.38375511 C3.53287936,3.38375511 1.01570282,6.02586527 1.01570282,9.27056196 L36.2561745,9.27056196 C36.2561745,6.02586527 33.7831589,3.38375511 30.6477285,3.38375511" id="Fill-7" fill="#1A527E"></path>
                    <path d="M37.0510723,10.0585597 L0.264965952,10.0585597 L0.264965952,9.27056196 C0.264965952,5.60868998 3.13543043,2.59575735 6.62414881,2.59575735 L30.6477285,2.59575735 C34.1364468,2.59575735 37.0069113,5.56233717 37.0069113,9.27056196 L37.0510723,10.0585597 L37.0510723,10.0585597 Z M1.81060067,8.48256419 L35.4612766,8.48256419 C35.1079887,6.07221808 33.076583,4.17175288 30.6477285,4.17175288 L6.62414881,4.17175288 C4.23945524,4.17175288 2.2080496,6.02586527 1.81060067,8.48256419 L1.81060067,8.48256419 Z" id="Fill-8" fill="#1A527E"></path>
                </g>
            </g>
        </g>
    </g>
</svg>