<?xml version="1.0" encoding="UTF-8" standalone="no"?>
<svg width="55px" height="45px" viewBox="0 0 55 45" version="1.1" xmlns="http://www.w3.org/2000/svg" xmlns:xlink="http://www.w3.org/1999/xlink">
    <!-- Generator: Sketch 3.7.1 (28215) - http://www.bohemiancoding.com/sketch -->
    <title>Edit Icon</title>
    <desc>Created with Sketch.</desc>
    <defs></defs>
    <g id="Page-1" stroke="none" stroke-width="1" fill="none" fill-rule="evenodd">
        <g id="Mast-Head-with-Search-Closed-Copy-4" transform="translate(-248.000000, -3563.000000)">
            <g id="Group-12" transform="translate(226.000000, 3538.000000)">
                <g id="Edit-Icon" transform="translate(24.000000, 24.000000)">
                    <g id="Icon-Copy" transform="translate(34.162889, 24.499894) rotate(-149.000000) translate(-34.162889, -24.499894) translate(25.662889, 1.499894)">
                        <path d="M16.0178054,42.3994092 L16.0178054,10.437748 L8.25656263,0.289429845 L0.495319829,9.88128818 L0.616069439,39.2681437 L0.616069439,44.1312725 C0.616069439,45.2400658 1.61102158,45.9786719 2.76923213,45.9786719 L14.0057226,45.9786719 C15.1645493,45.9786719 16.0178054,45.2400658 16.0178054,44.1312725 L16.0178054,42.3994092 L16.0178054,42.3994092 Z M6.96404894,3.72663031 C7.3398513,3.77850368 7.64049319,3.80856666 8.03292942,3.80797719 C8.47465121,3.80797719 8.90774802,3.77084057 9.33098773,3.70481991 C10.4374484,5.1112957 12.1507376,7.08189442 13.6225274,9.01299864 C13.085931,9.27236551 12.9374582,9.80170971 12.9374582,10.4212428 L12.9374582,10.5002318 C12.9374582,9.58301628 10.7405546,8.8420523 8.31139281,8.8420523 C5.8883917,8.8420523 3.69641664,9.58301628 3.69641664,10.5002318 L3.69641664,10.4212428 C3.69641664,9.78933083 3.273793,9.24937617 2.71871444,8.99649348 C3.81038948,7.61890173 5.67461561,5.32350495 6.96404894,3.72663031 L6.96404894,3.72663031 Z" id="Fill-1" fill="#1A527E"></path>
                        <path d="M4.6426993,12.6730188 C4.6426993,11.8200555 5.13925126,10.694757 8.34342842,10.694757 C11.5568466,10.694757 12.0589432,11.8200555 12.0589432,12.6730188 L12.0589432,41.7103186 L4.6426993,41.7103186 L4.6426993,12.6730188" id="Fill-2" fill="#FFFFFF"></path>
                        <path d="M13.5362777,12.6730188 C13.5362777,11.8200555 13.6619559,11.1315544 14.0839635,11.1315544 C14.5072032,11.1315544 14.6334974,11.8200555 14.6334974,12.6730188 L14.6334974,41.7103186 L13.5362777,41.7103186 L13.5362777,12.6730188" id="Fill-3" fill="#FFFFFF"></path>
                        <path d="M2.06876118,12.6730188 C2.06876118,11.8200555 2.19443934,11.1315544 2.61644691,11.1315544 C3.03968661,11.1315544 3.16536478,11.8200555 3.16536478,12.6730188 L3.16536478,41.7103186 L2.06876118,41.7103186 L2.06876118,12.6730188" id="Fill-4" fill="#FFFFFF"></path>
                        <path d="M6.96404894,3.72663031 C7.3398513,3.77850368 7.64049319,3.80856666 8.03292942,3.80797719 C8.47465121,3.80797719 8.90774802,3.77084057 9.33098773,3.70481991 C10.4374484,5.1112957 12.1507376,7.08189442 13.6225274,9.01299864 C13.085931,9.27236551 12.9374582,9.80170971 12.9374582,10.4212428 L12.9374582,10.5002318 C12.9374582,9.58301628 10.7405546,8.8420523 8.31139281,8.8420523 C5.8883917,8.8420523 3.69641664,9.58301628 3.69641664,10.5002318 L3.69641664,10.4212428 C3.69641664,9.78933083 3.273793,9.24937617 2.71871444,8.99649348 C3.81038948,7.61890173 5.67461561,5.32350495 6.96404894,3.72663031" id="Fill-5" fill="#1A527E"></path>
                    </g>
                    <path d="M16.9902359,43.9296147 L0,43.9296147" id="Line-Copy-3" stroke="#1A527E" stroke-width="3" stroke-linecap="square"></path>
                </g>
            </g>
        </g>
    </g>
</svg>