<?xml version="1.0" encoding="UTF-8" standalone="no"?>
<svg width="20px" height="20px" viewBox="0 0 20 20" version="1.1" xmlns="http://www.w3.org/2000/svg" xmlns:xlink="http://www.w3.org/1999/xlink">
    <!-- Generator: Sketch 3.6.1 (26313) - http://www.bohemiancoding.com/sketch -->
    <title>search</title>
    <desc>Created with Sketch.</desc>
    <defs></defs>
    <g id="Page-1" stroke="none" stroke-width="1" fill="none" fill-rule="evenodd">
        <g id="Mast-Head-with-Search-Closed-Copy-3" transform="translate(-950.000000, -26.000000)" fill="#4C4E51">
            <path d="M961.783056,40.0006052 C960.586203,40.7831523 959.155754,41.2380952 957.619048,41.2380952 C953.411164,41.2380952 950,37.8269316 950,33.6190476 C950,29.4111636 953.411164,26 957.619048,26 C961.826932,26 965.238095,29.4111636 965.238095,33.6190476 C965.238095,34.9071039 964.918467,36.1205071 964.3542,37.184269 L969.341942,42.1720119 C970.081702,42.9117714 970.080333,44.1164307 969.336477,44.8602865 C968.587435,45.6093284 967.38904,45.6065893 966.648202,44.865752 L961.783056,40.0006052 Z M957.619048,38.3809524 C960.248975,38.3809524 962.380952,36.2489751 962.380952,33.6190476 C962.380952,30.9891201 960.248975,28.8571429 957.619048,28.8571429 C954.98912,28.8571429 952.857143,30.9891201 952.857143,33.6190476 C952.857143,36.2489751 954.98912,38.3809524 957.619048,38.3809524 Z" id="search"></path>
        </g>
    </g>
</svg>