<?xml version="1.0" encoding="UTF-8" standalone="no"?>
<svg width="34px" height="55px" viewBox="0 0 34 55" version="1.1" xmlns="http://www.w3.org/2000/svg" xmlns:xlink="http://www.w3.org/1999/xlink">
    <!-- Generator: Sketch 3.7.1 (28215) - http://www.bohemiancoding.com/sketch -->
    <title>Magnifying Glass</title>
    <desc>Created with Sketch.</desc>
    <defs></defs>
    <g id="Page-1" stroke="none" stroke-width="1" fill="none" fill-rule="evenodd">
        <g id="Mast-Head-with-Search-Closed-Copy-4" transform="translate(-251.000000, -3685.000000)" fill="#1A527E">
            <g id="Group-15" transform="translate(226.000000, 3660.000000)">
                <g id="Magnifying-Glass" transform="translate(45.638889, 50.740563) rotate(-60.000000) translate(-45.638889, -50.740563) translate(24.138889, 26.240563)">
                    <path d="M0.747517866,45.8402729 L4.10670529,48.6403526 C4.73768466,49.1670488 5.67277844,49.0743106 6.19093368,48.4315147 L18.9785965,30.994612 C19.4976803,30.3508721 19.4043566,29.4017805 18.7710558,28.8748483 L16.9414942,27.3497417 C16.3079612,26.8221015 15.3749568,26.9155476 14.8565694,27.5595235 L0.541137933,43.7216891 C0.0227505437,44.365429 0.114681312,45.3152285 0.747517866,45.8402729 Z" id="Fill-1"></path>
                    <path d="M18.7710558,28.8748483 C19.4043566,29.4017805 19.4976803,30.3508721 18.9785965,30.994612 L18.2085602,32.0439929 L13.9934416,28.5317406 L14.8565694,27.5595235 C15.3749568,26.9155476 16.3079612,26.8221015 16.9414942,27.3497417 L18.7710558,28.8748483" id="Fill-2"></path>
                    <path d="M11.0017451,16.337967 C11.0091738,20.646871 12.6669456,24.7042256 15.6739639,27.7582144 L15.6739639,27.7593943 C18.6967683,30.8322611 22.7110785,32.5197186 26.9763412,32.5131113 C35.765712,32.4975369 42.905204,25.2134598 42.8891858,16.2799172 C42.8824535,11.9691254 41.2216638,7.91059085 38.2151098,4.85329839 C35.1934661,1.78326328 31.1817095,0.0960418362 26.9187684,0.100997312 C22.6669703,0.111144238 18.6668211,1.80544494 15.6574814,4.87335627 C12.6486059,7.94362735 10.993852,12.0146685 11.0017451,16.337967 L11.0017451,16.337967 Z M13.3520155,16.3825663 C13.3450511,12.6864894 14.7623171,9.20396998 17.3373072,6.57733194 C19.9129938,3.94927806 23.3334684,2.49921152 26.9721625,2.49307617 C30.6138745,2.48694082 34.046653,3.93110799 36.6327862,6.56034174 C39.2059192,9.17470907 40.625971,12.6487334 40.6333997,16.3341914 C40.6482572,23.9767146 34.5422899,30.2062194 27.0204494,30.219434 C23.3738622,30.2248614 19.939923,28.782582 17.3496111,26.1495727 C14.7781032,23.5363852 13.3592121,20.0689682 13.3520155,16.3825663 L13.3520155,16.3825663 Z" id="Fill-3"></path>
                </g>
            </g>
        </g>
    </g>
</svg>